<?xml version="1.0" encoding="UTF-8" standalone="no"?>
<!-- Created with Inkscape (http://www.inkscape.org/) -->

<svg
   xmlns:dc="http://purl.org/dc/elements/1.1/"
   xmlns:cc="http://creativecommons.org/ns#"
   xmlns:rdf="http://www.w3.org/1999/02/22-rdf-syntax-ns#"
   xmlns:svg="http://www.w3.org/2000/svg"
   xmlns="http://www.w3.org/2000/svg"
   xmlns:sodipodi="http://sodipodi.sourceforge.net/DTD/sodipodi-0.dtd"
   xmlns:inkscape="http://www.inkscape.org/namespaces/inkscape"
   width="149.59999"
   height="135.60001"
   viewBox="0 0 39.581664 35.877501"
   version="1.1"
   id="svg21119"
   inkscape:version="0.92.0 r15299"
   sodipodi:docname="bcit.svg">
  <defs
     id="defs21113" />
  <sodipodi:namedview
     id="base"
     pagecolor="#ffffff"
     bordercolor="#666666"
     borderopacity="1.0"
     inkscape:pageopacity="0.0"
     inkscape:pageshadow="2"
     inkscape:zoom="3.9895208"
     inkscape:cx="73.799988"
     inkscape:cy="66.799954"
     inkscape:document-units="mm"
     inkscape:current-layer="layer1"
     showgrid="false"
     fit-margin-top="0"
     fit-margin-left="0"
     fit-margin-right="0"
     fit-margin-bottom="0"
     units="px"
     inkscape:window-width="1280"
     inkscape:window-height="744"
     inkscape:window-x="-4"
     inkscape:window-y="-4"
     inkscape:window-maximized="1" />
  <metadata
     id="metadata21116">
    <rdf:RDF>
      <cc:Work
         rdf:about="">
        <dc:format>image/svg+xml</dc:format>
        <dc:type
           rdf:resource="http://purl.org/dc/dcmitype/StillImage" />
        <dc:title></dc:title>
      </cc:Work>
    </rdf:RDF>
  </metadata>
  <g
     inkscape:label="Layer 1"
     inkscape:groupmode="layer"
     id="layer1"
     transform="translate(-121.83685,-334.73713)">
    <g
       id="g21154"
       transform="translate(0.26458061,-0.26458631)">
      <rect
         id="rect21123"
         height="35.348335"
         width="35.321873"
         class="st0"
         x="121.83685"
         y="335.2663"
         style="fill:#003e6b;stroke-width:0.26458332" />
      <path
         id="path21125"
         d="m 157.8731,337.80631 v -1.87854 h -0.44979 v -0.39688 h 1.34937 v 0.39688 h -0.44979 v 1.87854 z m 2.59292,0 v -1.5875 0 l -0.34396,1.5875 h -0.3175 l -0.37042,-1.5875 v 0 1.5875 h -0.39687 v -2.27542 h 0.60854 l 0.3175,1.42875 v 0 l 0.34396,-1.42875 h 0.58208 v 2.27542 z"
         class="st0"
         inkscape:connector-curvature="0"
         style="fill:#003e6b;stroke-width:0.26458332" />
      <path
         id="path21127"
         transform="scale(0.26458333)"
         d="m 520.98633,1309.4473 c -10.90001,0 -14.70117,10.1007 -14.70117,23.3007 0,14.8 3.59963,23.7012 14.59961,23.7012 8.4,0 12.60154,-5.3 14.10156,-15.5 l -7.09961,-0.8008 c -1.00003,6.3001 -3.10078,9.5 -6.80078,9.5 -4.90001,0 -7,-4.3 -7,-17 0,-11.6 2.39961,-16.5 7.09961,-16.5 3.39998,0 5.4008,2.8992 6.30078,8.6993 l 7,-0.5997 c -1.10003,-9.3 -4.70001,-14.8007 -13.5,-14.8007 z m 20.39844,0.5019 v 45.8985 h 7.60156 v -45.8985 z m 13.80078,0 v 6.8985 h 9.5 v 39 h 7.5 v -39 h 9.5 v -6.8985 z m -81.19922,0.1 v 45.8985 h 11.90039 v -0.1 c 8.89999,0 15.79883,-2.5993 15.79883,-13.1993 0,-5.1999 -1.90002,-9.1004 -7,-10.9004 v -0.1 c 3.80001,-1.7 5.90039,-4.9011 5.90039,-9.7011 0,-8.5 -4.8008,-11.8985 -15.30078,-11.8985 z m 7.39844,6.6992 h 4.20117 c 3.7,0 7.29883,0.9008 7.29883,5.8008 0,5 -3.39881,6.5 -7.29883,6.5 h -4.20117 v -0.1 z m 0,18.4004 h 5 c 4.99997,0 7.5,2 7.5,7 0,5.0001 -2.29962,6.8008 -7.59961,6.8008 h -4.90039 z"
         style="fill:#ffffff;stroke-width:0.99999994"
         inkscape:connector-curvature="0" />
    </g>
  </g>
  <style
     id="style21121"
     type="text/css">.st0{fill:#003E6B;}.st1{fill:#FFFFFF;}</style>
</svg>
